<?xml version="1.0" standalone="no"?>
<!DOCTYPE svg PUBLIC "-//W3C//DTD SVG 20010904//EN"
 "http://www.w3.org/TR/2001/REC-SVG-20010904/DTD/svg10.dtd">
<svg version="1.0" xmlns="http://www.w3.org/2000/svg"
 width="552.000000pt" height="552.000000pt" viewBox="0 0 552.000000 552.000000"
 preserveAspectRatio="xMidYMid meet">

<g transform="translate(0.000000,552.000000) scale(0.100000,-0.100000)"
fill="#ef4b4c" stroke="none">
<path d="M1975 5476 c-22 -8 -83 -28 -135 -45 -84 -27 -122 -40 -235 -83 -90
-34 -267 -132 -283 -156 -15 -24 -17 -72 -22 -507 l-5 -480 -470 -5 c-421 -4
-473 -7 -502 -22 -43 -24 -65 -57 -134 -206 -86 -184 -104 -228 -145 -362 -31
-104 -27 -152 18 -218 18 -26 162 -177 320 -336 158 -159 288 -292 288 -295 0
-3 -133 -139 -296 -302 -164 -164 -310 -316 -325 -340 -40 -59 -38 -99 17
-263 67 -204 197 -477 250 -527 l26 -24 466 -3 c316 -2 470 -6 479 -14 10 -8
13 -101 13 -451 0 -314 3 -451 12 -480 10 -33 23 -47 78 -82 175 -113 606
-271 684 -251 15 4 51 31 79 60 49 49 365 380 506 528 35 38 72 68 81 68 9 0
109 -93 221 -207 112 -115 254 -259 316 -322 l111 -113 99 4 c93 5 107 8 260
71 248 100 435 205 453 253 7 16 10 197 10 463 0 240 0 441 0 448 0 8 115 12
448 15 528 4 501 -2 567 113 93 160 232 512 242 611 5 47 2 57 -26 96 -17 24
-164 176 -326 337 -162 162 -295 298 -295 304 0 5 127 139 283 296 300 303
367 379 367 415 0 21 -36 155 -65 241 -40 119 -137 326 -198 422 -47 74 -41
73 -543 73 -343 0 -445 3 -451 13 -4 6 -8 220 -8 474 l0 461 -24 25 c-40 44
-392 212 -545 262 -152 50 -186 53 -233 28 -17 -10 -136 -126 -263 -258 -328
-340 -364 -375 -390 -375 -21 0 -58 36 -514 507 -138 143 -181 166 -261 139z
m1238 -1265 c15 -12 17 -61 19 -475 l3 -461 460 -5 c253 -3 468 -9 478 -14 16
-8 17 -41 17 -497 l0 -489 -477 -2 -478 -3 -3 -474 c-2 -365 -5 -477 -15 -483
-6 -4 -224 -8 -483 -8 -426 0 -473 2 -485 17 -11 13 -15 107 -19 482 l-5 466
-465 3 c-423 2 -466 4 -477 19 -20 26 -18 932 1 959 14 18 34 19 478 24 l463
5 3 459 c1 306 6 463 13 472 6 7 20 14 32 16 12 2 225 3 473 3 366 0 454 -3
467 -14z"/>
</g>
</svg>
